# AST/ASF file generated using VICON BodyLanguage
# -----------------------------------------------
:version 1.10
:name VICON
:units
  mass 1.0
  length 0.45
  angle deg
:documentation
   .ast/.asf automatically generated from VICON data using
   VICON BodyBuilder and BodyLanguage model FoxedUp or BRILLIANT.MOD
:root
   order TX TY TZ RX RY RZ
   axis XYZ
   position 0 0 0  
   orientation 0 0 0 
:bonedata
  begin
     id 1 
     name lhipjoint
     direction 0.707368 -0.647095 0.284426 
     length 2.60678 
     axis 0 0 0  XYZ
  end
  begin
     id 2 
     name lfemur
     direction 0.34202 -0.939693 0  
     length 6.63812  
     axis 0 0 20  XYZ
    dof rx ry rz
    limits (-160.0 20.0)
           (-70.0 70.0)
           (-60.0 70.0)
  end
  begin
     id 3 
     name ltibia
     direction 0.34202 -0.939693 0   
     length 7.51178   
     axis 0 0 20   XYZ
    dof rx
    limits (-10.0 170.0)
  end
  begin
     id 4 
     name lfoot
     direction 0.121251 -0.333133 0.935051   
     length 1.83716   
     axis -90 7.62852e-016 20   XYZ
    dof rx rz
    limits (-45.0 90.0)
           (-70.0 20.0)
  end
  begin
     id 5 
     name ltoes
     direction 1.53611e-011 -4.21962e-011 1   
     length 0.916133   
     axis -90 7.62852e-016 20   XYZ
    dof rx
    limits (-90.0 20.0)
  end
  begin
     id 6 
     name rhipjoint
     direction -0.692419 -0.660507 0.290321   
     length 2.55385  
     axis 0 0 0  XYZ 
  end
  begin
     id 7 
     name rfemur
     direction -0.34202 -0.939693 0   
     length 7.29079   
     axis 0 0 -20   XYZ
    dof rx ry rz
    limits (-160.0 20.0)
           (-70.0 70.0)
           (-70.0 60.0)
  end
  begin
     id 8 
     name rtibia
     direction -0.34202 -0.939693 0   
     length 7.47143   
     axis 0 0 -20   XYZ
    dof rx
    limits (-10.0 170.0)
 end
 begin
     id 9 
     name rfoot
     direction -0.119907 -0.329441 0.936532   
     length 1.79439  
     axis -90 -7.62852e-016 -20   XYZ
    dof rx rz
    limits (-45.0 90.0)
           (-20.0 70.0)
  end
  begin
     id 10 
     name rtoes
     direction -1.53571e-011 -4.21961e-011 1   
     length 0.896039   
     axis -90 -7.62852e-016 -20   XYZ
    dof rx
    limits (-90.0 20.0)
  end
  begin
     id 11 
     name lowerback
     direction 0.0367721 0.992912 -0.113016   
     length 1.73542   
     axis 0 0 0   XYZ
    dof rx ry rz
    limits (-20.0 45.0)
           (-30.0 30.0)
           (-30.0 30.0)
  end
  begin
     id 12 
     name upperback
     direction -0.000314626 0.990678 0.136227   
     length 1.7514   
     axis 0 0 0   XYZ
    dof rx ry rz
    limits (-20.0 45.0)
           (-30.0 30.0)
           (-30.0 30.0)
  end
  begin
     id 13 
     name thorax
     direction -0.0226159 0.981151 0.191917   
     length 1.71471   
     axis 0 0 0   XYZ
    dof rx ry rz
    limits (-20.0 45.0)
           (-30.0 30.0)
           (-30.0 30.0)
  end
  begin
     id 14 
     name lowerneck
     direction 0.0219333 0.998071 0.0580739   
     length 1.65882   
     axis 0 0 0   XYZ
    dof rx ry rz
    limits (-20.0 45.0)
           (-30.0 30.0)
           (-30.0 30.0)
  end
  begin
     id 15 
     name upperneck
     direction 0.0384529 0.980058 -0.194957   
     length 1.6612   
     axis 0 0 0   XYZ
    dof rx ry rz
    limits (-20.0 45.0)
           (-30.0 30.0)
           (-30.0 30.0)
  end
  begin
     id 16
     name head
     direction 0.00592123 0.997421 -0.0715234  
     length 1.68077  
     axis 0 0 0   XYZ
    dof rx ry rz
    limits (-20.0 45.0)
           (-30.0 30.0)
           (-30.0 30.0)
  end
  begin
     id 17 
     name lclavicle
     direction 0.904803 0.417826 0.0821728  
     length 3.42227  
     axis 0 0 0   XYZ
    dof ry rz
    limits (-20.0 10.0)
           (0.0 20.0)
  end
  begin
     id 18 
     name lhumerus
     direction 1 -4.48965e-011 -2.68786e-027   
     length 5.11878   
     axis -180 -30 -90   XYZ
    dof rx ry rz
    limits (-60.0 90.0)
           (-90.0 90.0)
           (-90.0 90.0)
  end
  begin
     id 19
     name lradius
     direction 1 -4.48965e-011 2.61168e-028   
     length 3.59971   
     axis -180 -30 -90   XYZ
    dof rx
    limits (-10.0 170.0)
  end
  begin
     id 20
     name lwrist
     direction 1 -4.48965e-011 1.58672e-027   
     length 1.79985   
     axis -1.65735e-015 90 90   XYZ
    dof ry
    limits (-180.0 0.0)
 end
  begin
     id 21 
     name lhand
     direction 1 -4.48942e-011 3.17344e-027   
     length 0.62877   
     axis -2.02492e-015 90 90   XYZ
    dof rx rz
    limits (-90.0 90.0)
           (-45.0 45.0)
  end
  begin
     id 22 
     name lfingers
     direction 1 -4.49011e-011 6.34687e-027   
     length 0.506931   
     axis -4.04985e-015 90 90   XYZ
    dof rx
    limits (0.0 90.0)
  end
  begin
     id 23
     name lthumb
     direction 0.707107 -6.34982e-011 0.707107   
     length 0.727854   
     axis -90 45 2.85299e-015   XYZ
    dof rx rz
    limits (-45.0 45.0)
           (-45.0 45.0)
  end
  begin
     id 24 
     name rclavicle
     direction -0.945647 0.32488 0.0143075   
     length 3.52737  
     axis 0 0 0   XYZ 
    dof ry rz
    limits (-10.0 20.0)
           (-20.0 0.0)
  end
  begin
     id 25 
     name rhumerus
     direction -1 -4.48962e-011 1.92182e-027  
     length 5.4902   
     axis -180 30 90   XYZ
    dof rx ry rz
    limits (-90.0 60.0)
           (-90.0 90.0)
           (-90.0 90.0)
  end
  begin
     id 26 
     name rradius
     direction -1 -4.48967e-011 -5.97193e-028   
     length 3.20659   
     axis -180 30 90   XYZ
    dof rx
    limits (-10.0 170.0)
  end
  begin
     id 27 
     name rwrist
     direction -1 -4.48964e-011 1.58672e-027   
     length 1.6033   
     axis -1.65735e-015 -90 -90   XYZ
    dof ry
    limits (-180.0 0.0)
  end
  begin
     id 28
     name rhand
     direction -1 -4.49006e-011 3.17344e-027   
     length 0.691885   
     axis -2.02492e-015 -90 -90   XYZ
    dof rx rz
    limits (-90.0 90.0)
           (-45.0 45.0)
  end
  begin
     id 29
     name rfingers
     direction -1 -4.48908e-011 6.34687e-027   
     length 0.557815   
     axis -4.04985e-015 -90 -90   XYZ
    dof rx
    limits (0.0 90.0)
  end
  begin
     id 30
     name rthumb
     direction -0.707107 -6.34999e-011 0.707107   
     length 0.800915   
     axis -90 -45 -2.85299e-015   XYZ
    dof rx rz
    limits (-45.0 45.0)
           (-45.0 45.0)
  end
:hierarchy
  begin
    root lhipjoint rhipjoint lowerback
    lhipjoint lfemur
    lfemur ltibia
    ltibia lfoot
    lfoot ltoes
    rhipjoint rfemur
    rfemur rtibia
    rtibia rfoot
    rfoot rtoes
    lowerback upperback
    upperback thorax
    thorax lowerneck lclavicle rclavicle
    lowerneck upperneck
    upperneck head
    lclavicle lhumerus
    lhumerus lradius
    lradius lwrist
    lwrist lhand lthumb
    lhand lfingers
    rclavicle rhumerus
    rhumerus rradius
    rradius rwrist
    rwrist rhand rthumb
    rhand rfingers
  end

#!OML:ASF I:\Actors\actors\Patient Classification 1\Patient 1\Session 1\Subject1.ASF
:FULLY-SPECIFIED
:DEGREES
1
root 0.692562 17.4177 9.26658 8.04967 0.739882 -10.2845
lowerback -0.0578993 1.02786 7.59577
upperback -9.5827 1.94146 1.58396
thorax -10.017 0.395412 -2.70252
lowerneck -2.19671 -12.5818 -7.1854
upperneck 15.0348 -18.2077 9.39063
head 6.4575 -8.7239 2.75884
rclavicle 3.18055e-015 -2.10712e-014
rhumerus -46.5872 -19.3758 -74.8616
rradius 25.1027
rwrist 40.4305
rhand 10.5734 -32.9765
rfingers 7.12502
rthumb 35.6699 -59.3734
lclavicle 3.18055e-015 -2.10712e-014
lhumerus -48.0104 21.905 68.657
lradius 26.5291
lwrist 12.3184
lhand 15.5478 2.06579
lfingers 7.12502
lthumb 40.367 27.1801
rfemur -3.23799 23.6907 27.728
rtibia 3.40915
rfoot -12.5284 -25.643
rtoes 1.80065
lfemur 5.91714 -41.9347 -10.7276
ltibia -5.00921
lfoot -14.7706 48.8177
ltoes 2.53646
2
root 0.693744 17.4178 9.26873 8.05559 0.754997 -10.24
lowerback -0.154565 0.928227 7.46765
upperback -9.38433 1.78697 1.7001
thorax -9.75356 0.349877 -2.49303
lowerneck -2.83235 -12.5373 -7.16808
upperneck 15.138 -18.1091 9.29125
head 6.57899 -8.65401 2.6893
rclavicle -7.95139e-016 -2.62396e-014
rhumerus -46.0575 -19.1474 -74.984
rradius 24.9953
rwrist 40.4382
rhand 10.5201 -33.0901
rfingers 7.12502
rthumb 35.6195 -59.4993
lclavicle -7.95139e-016 -2.62396e-014
lhumerus -47.59 18.962 71.94
lradius 26.6564
lwrist 10.4232
lhand 6.95959 -1.62148
lfingers 7.12502
lthumb 32.2372 25.5366
rfemur -3.20794 23.5778 27.6693
rtibia 3.34831
rfoot -12.4561 -25.5676
rtoes 2.01213
lfemur 5.90905 -42.0218 -10.8357
ltibia -4.89659
lfoot -14.9747 48.6224
ltoes 3.29292
3
root 0.692733 17.4173 9.27095 8.06883 0.750793 -10.2053
lowerback -0.205128 0.840985 7.33959
upperback -9.22509 1.65545 1.80236
thorax -9.55928 0.310752 -2.30213
lowerneck -3.41083 -12.5176 -7.08534
upperneck 15.256 -18.0374 9.09695
head 6.68327 -8.60236 2.58347
rclavicle -1.2424e-014 2.3059e-014
rhumerus -45.6223 -18.9564 -75.0932
rradius 24.961
rwrist 40.3735
rhand 10.5417 -33.244
rfingers 7.12502
rthumb 35.64 -59.6481
lclavicle -1.2424e-014 2.3059e-014
lhumerus -47.3164 17.0059 74.3705
lradius 26.4898
lwrist 7.24469
lhand -1.59505 -3.94167
lfingers 7.12502
lthumb 24.0617 24.5698
rfemur -3.19586 23.6124 27.6345
rtibia 3.31877
rfoot -12.445 -25.5914
rtoes 0.500216
lfemur 5.90072 -42.1226 -10.8955
ltibia -4.84293
lfoot -15.1534 48.6847
ltoes 3.40424
4
root 0.692466 17.417 9.27272 8.09454 0.741724 -10.1751
lowerback -0.302642 0.661622 7.18063
upperback -9.45792 1.42238 1.96085
thorax -9.79139 0.204944 -2.02429
lowerneck -2.31424 -12.272 -7.31115
upperneck 15.0084 -17.7007 9.05802
head 6.40401 -8.50318 2.72152
rclavicle 2.39536e-014 -6.55989e-014
rhumerus -46.0664 -18.2543 -75.0798
rradius 25.0133
rwrist 40.2772
rhand 10.5689 -33.3119
rfingers 7.12502
rthumb 35.6657 -59.7098
lclavicle 2.39536e-014 -6.55989e-014
lhumerus -48.1172 13.631 78.1234
lradius 26.1413
lwrist 0.0973227
lhand -18.0554 -3.2694
lfingers 7.12502
lthumb 8.2169 26.5508
rfemur -3.22215 23.6292 27.5903
rtibia 3.32213
rfoot -12.4425 -25.6199
rtoes -0.506537
lfemur 5.89094 -42.2411 -10.9479
ltibia -4.80855
lfoot -15.2801 48.8676
ltoes 3.30657
5
root 0.688469 17.4208 9.2772 8.2532 0.655875 -9.81517
lowerback -0.513844 0.461194 6.58574
upperback -9.60628 1.11863 2.06852
thorax -9.85929 0.105876 -1.55274
lowerneck -1.90544 -12.0424 -7.47225
upperneck 14.9934 -17.3851 9.01608
head 6.312 -8.37797 2.79226
rclavicle -4.67144e-015 1.98785e-014
rhumerus -46.0382 -17.4396 -75.2861
rradius 24.7599
rwrist 40.1791
rhand 10.4531 -33.1934
rfingers 7.12502
rthumb 35.556 -59.6178
lclavicle -4.67144e-015 1.98785e-014
lhumerus -48.6698 14.0191 78.0244
lradius 26.4029
lwrist 0.322151
lhand -18.1857 -2.47526
lfingers 7.12502
lthumb 8.09108 27.3499
rfemur -3.41876 23.7109 27.0771
rtibia 3.31394
rfoot -12.4409 -25.6706
rtoes 2.51851
lfemur 5.75341 -42.6348 -11.3174
ltibia -4.74564
lfoot -15.7493 49.1737
ltoes 4.25193
6
root 0.680692 17.4307 9.30254 8.70587 0.804468 -9.65237
lowerback -1.40331 0.139463 6.09771
upperback -9.79038 0.607723 2.25037
thorax -9.5726 -0.090925 -1.04495
lowerneck -1.44529 -11.7415 -7.41088
upperneck 14.9468 -16.9707 8.88074
head 6.16468 -8.20168 2.81665
rclavicle 1.19271e-014 4.37326e-015
rhumerus -45.8519 -16.322 -75.792
rradius 24.268
rwrist 39.9461
rhand 10.2093 -33.0981
rfingers 7.12502
rthumb 35.3248 -59.5776
lclavicle 1.19271e-014 4.37326e-015
lhumerus -49.3232 14.4858 77.8268
lradius 26.8255
lwrist 0.829991
lhand -18.3317 -1.02676
lfingers 7.12502
lthumb 7.95015 28.8037
rfemur -3.76486 23.6296 26.7414
rtibia 3.10434
rfoot -12.3666 -25.731
rtoes 4.72738
lfemur 5.16949 -42.9254 -11.0862
ltibia -4.78001
lfoot -15.9895 49.2596
ltoes 4.91616
